<svg xmlns="http://www.w3.org/2000/svg" width="63" height="63" fill="none" viewBox="0 0 63 63"><path fill="#627EEA" d="M31.5 63C48.897 63 63 48.897 63 31.5C63 14.103 48.897 0 31.5 0C14.103 0 0 14.103 0 31.5C0 48.897 14.103 63 31.5 63Z"/><path fill="#fff" fill-opacity=".602" d="M31.5 7.875V25.3378L46.2597 31.9331L31.5 7.875Z"/><path fill="#fff" d="M32.4804 7.875L17.7188 31.9331L32.4804 25.3378V7.875Z"/><path fill="#fff" fill-opacity=".602" d="M31.5 44.0055V55.8712L46.2696 35.4375L31.5 44.0055Z"/><path fill="#fff" d="M32.4804 55.8712V44.0035L17.7188 35.4375L32.4804 55.8712Z"/><path fill="#FBFBFB" fill-opacity=".2" d="M31.5 40.7551L46.2597 32.1851L31.5 25.5938V40.7551Z"/><path fill="#fff" fill-opacity=".602" d="M17.7188 32.1851L32.4804 40.7551V25.5938L17.7188 32.1851Z"/></svg>